<svg width="60" height="67" viewBox="0 0 60 67" fill="none" xmlns="http://www.w3.org/2000/svg">
<path d="M36.6101 52.2739L37.0387 52.2623C37.2357 52.2573 37.45 52.3093 37.6342 52.4399C37.8127 52.5663 37.9945 52.7889 38.0986 53.1838C38.3147 54.0043 38.1845 55.5411 36.9632 58.2105C36.1861 59.9091 35.7221 61.1855 35.499 62.1543C35.2783 63.1129 35.2768 63.8404 35.5127 64.3914C35.7619 64.9734 36.2294 65.256 36.6844 65.4218C36.9072 65.5029 37.1413 65.5615 37.3558 65.6125C37.5789 65.6656 37.7797 65.71 37.9761 65.7678C38.86 66.0278 40.1154 66.2404 41.1328 66.0947C41.6397 66.022 42.1598 65.8499 42.5258 65.4768C42.9174 65.0775 43.0556 64.5279 42.9394 63.8822C42.8278 63.2627 42.5624 62.7965 42.1988 62.4636C41.8408 62.136 41.4166 61.963 41.0252 61.8751C40.7384 61.8107 40.4561 61.7886 40.2078 61.7881C40.2821 61.6133 40.3679 61.4099 40.4653 61.1791C40.8261 60.3242 41.3099 59.1377 41.7265 57.8493C42.1419 56.5649 42.4982 55.1561 42.5899 53.8589C42.6806 52.5765 42.5197 51.3073 41.7949 50.3951C39.7335 47.801 37.34 47.5915 36.2793 47.8941L35.8442 48.0181L36.6101 52.2739Z" fill="white" stroke="black"/>
<path d="M31.3443 48.5455L30.9413 48.3994C30.7559 48.3327 30.5361 48.3146 30.3201 48.3804C30.1109 48.4442 29.8683 48.5982 29.6451 48.9403C29.1816 49.6509 28.8211 51.1505 29.1394 54.0687C29.342 55.9256 29.3803 57.2832 29.2869 58.273C29.1945 59.2523 28.9668 59.9432 28.5694 60.3919C28.1496 60.8657 27.6169 60.9868 27.1327 61.0008C26.8958 61.0076 26.6551 60.9895 26.4355 60.9703C26.207 60.9504 26.0024 60.9294 25.7978 60.9223C24.8771 60.8907 23.6185 60.6971 22.6989 60.2383C22.2407 60.0097 21.8012 59.6825 21.5713 59.2132C21.3254 58.7108 21.3674 58.1457 21.6811 57.5695C21.9821 57.0166 22.3808 56.6578 22.8307 56.4564C23.2737 56.2582 23.7308 56.2276 24.1299 56.2674C24.4225 56.2966 24.6973 56.3646 24.9332 56.4422C24.9177 56.253 24.9003 56.0329 24.8805 55.7832C24.8074 54.8582 24.722 53.5797 24.7323 52.2257C24.7426 50.8758 24.8482 49.4264 25.1697 48.1663C25.4875 46.9206 26.04 45.7668 27.0152 45.1293C29.7887 43.3164 32.1264 43.8715 33.0378 44.4928L33.4118 44.7475L31.3443 48.5455Z" fill="white" stroke="black"/>
<path d="M30 54.1935C37.9565 54.1935 45.5871 51.8825 51.2132 47.7688C56.8393 43.6551 60 38.0757 60 32.2581C60 26.4404 56.8393 20.861 51.2132 16.7473C45.5871 12.6336 37.9565 10.3226 30 10.3226L30 32.2581L30 54.1935Z" fill="#FF5900"/>
<path d="M34.5161 45.8065C39.5638 45.8065 44.4047 44.3451 47.974 41.7437C51.5432 39.1424 53.5484 35.6143 53.5484 31.9355C53.5484 28.2567 51.5432 24.7285 47.974 22.1272C44.4047 19.5259 39.5638 18.0645 34.5161 18.0645L34.5161 31.9355L34.5161 45.8065Z" fill="white"/>
<circle cx="38.7307" cy="26.4726" r="2.53236" transform="rotate(1.58989 38.7307 26.4726)" fill="#FF5900"/>
<circle cx="47.1317" cy="28.0412" r="2.53236" transform="rotate(1.58989 47.1317 28.0412)" fill="#FF5900"/>
<circle cx="46.7501" cy="29.0518" r="1.86492" transform="rotate(1.58989 46.7501 29.0518)" fill="black"/>
<ellipse cx="38.3497" cy="27.4636" rx="1.86492" ry="1.84529" transform="rotate(1.58989 38.3497 27.4636)" fill="black"/>
<path d="M37.4193 32.2581C38.0523 34.4383 40.4869 37.6952 45.1612 33.2801C42.9701 36.6186 38.3542 41.0882 37.4193 32.2581Z" fill="black"/>
<ellipse cx="37.0549" cy="11.8417" rx="14.8376" ry="2.90932" transform="rotate(10.5535 37.0549 11.8417)" fill="black"/>
<path d="M29.9463 3.93234C30.351 1.76057 32.4395 0.328002 34.6113 0.732613L43.3353 2.35793C45.507 2.76254 46.9396 4.85111 46.535 7.02288L45.3493 13.3869L28.7607 10.2964L29.9463 3.93234Z" fill="black"/>
</svg>
